<svg aria-hidden="true" style="position: absolute; width: 0; height: 0; overflow: hidden;" version="1.1" xmlns="http://www.w3.org/2000/svg" xmlns:xlink="http://www.w3.org/1999/xlink">
<defs>

<symbol id="icon-behance" viewBox="0 0 33 32">
<path stroke-linejoin="miter" stroke-linecap="butt" stroke-miterlimit="4" stroke-width="0.4" d="M27.456 0h-22.688c-2.592 0-4.7 2.103-4.7 4.688v22.625c0 2.585 2.109 4.688 4.7 4.688h22.688c2.592 0 4.701-2.103 4.701-4.688v-22.625c0-2.585-2.109-4.688-4.701-4.688zM30.276 27.312c0 1.551-1.265 2.812-2.82 2.812h-22.688c-1.555 0-2.82-1.262-2.82-2.812v-22.625c0-1.551 1.265-2.813 2.82-2.813h22.688c1.555 0 2.82 1.262 2.82 2.813v22.625z"></path>
<path stroke-linejoin="miter" stroke-linecap="butt" stroke-miterlimit="4" stroke-width="0.4" d="M15.172 13.188c0-2.068-1.687-3.75-3.76-3.75h-5.641v13.125h5.641c2.074 0 3.76-1.682 3.76-3.75 0-1.119-0.495-2.125-1.277-2.812 0.782-0.688 1.277-1.693 1.277-2.812zM13.292 18.812c0 1.034-0.843 1.875-1.88 1.875h-3.76v-3.75h3.76c1.037 0 1.88 0.841 1.88 1.875zM7.651 15.062v-3.75h3.76c1.037 0 1.88 0.841 1.88 1.875s-0.843 1.875-1.88 1.875h-3.76z"></path>
<path stroke-linejoin="miter" stroke-linecap="butt" stroke-miterlimit="4" stroke-width="0.4" d="M21.753 13.188c-2.592 0-4.701 2.103-4.701 4.688s2.109 4.687 4.701 4.687c1.673 0 3.233-0.898 4.071-2.343l-1.628-0.939c-0.503 0.868-1.44 1.407-2.444 1.407-1.226 0-2.271-0.784-2.659-1.875h7.36v-0.937c0-2.585-2.109-4.688-4.7-4.688zM19.094 16.938c0.388-1.091 1.433-1.875 2.659-1.875s2.271 0.784 2.659 1.875h-5.318z"></path>
<path stroke-linejoin="miter" stroke-linecap="butt" stroke-miterlimit="4" stroke-width="0.4" d="M17.992 9.438h7.521v1.875h-7.521v-1.875z"></path>
</symbol>
<symbol id="icon-dribbble" viewBox="0 0 31 32">
<path stroke-linejoin="miter" stroke-linecap="butt" stroke-miterlimit="4" stroke-width="0.7805" d="M23.933 6.167l0.238-0.3-0.295-0.244c-2.237-1.867-5.142-3.001-8.313-3.001-0.006 0-0.011 0-0.017 0h0.001c-1.139 0.006-2.24 0.155-3.29 0.43l0.092-0.020-0.567 0.141 0.349 0.47c1.085 1.46 2.644 3.665 4.511 7.12l0.162 0.298 0.318-0.119c3.533-1.311 5.651-3.319 6.81-4.775zM10.43 4.015l-0.192-0.252-0.286 0.135c-3.509 1.655-6.168 4.817-7.217 8.678l-0.13 0.476 0.494 0.016c1.932 0.062 6.551-0.030 11.67-1.401l0.483-0.129-0.243-0.437c-1.986-3.578-3.655-5.868-4.58-7.086zM25.613 7.34l-0.303-0.361-0.297 0.364c-1.293 1.577-3.537 3.627-7.090 5.017l-0.395 0.155 0.187 0.381c0.661 1.283 1.396 2.936 2.053 4.628l0.133 0.388 0.112 0.296 0.312-0.048c1.348-0.215 2.901-0.337 4.484-0.337 0.794 0 1.582 0.031 2.361 0.092l-0.103-0.006c0.437 0.036 0.718 0.077 1.046 0.125l0.614 0.087 0.043-0.401c0.053-0.454 0.083-0.98 0.083-1.513 0-3.388-1.225-6.489-3.256-8.886l0.017 0.020zM16.133 13.292l-0.144-0.289-0.311 0.088c-6.020 1.709-11.323 1.658-12.975 1.591l-0.376-0.016-0.029 0.375-0.002 0.027c-0.029 0.371-0.058 0.753-0.058 1.159 0 4.085 1.767 7.732 4.554 10.226l0.291 0.261 0.26-0.291c0.892-1 1.798-1.918 2.747-2.791l0.028-0.026 0.002-0.001c2.143-1.976 4.901-4.066 7.905-4.979l0.404-0.123-0.153-0.393c-0.787-2.015-1.507-3.603-2.295-5.15l0.152 0.33zM23.54 19.455h-0.005c-0.938 0.047-1.794 0.129-2.639 0.246l0.156-0.018-0.464 0.062 0.145 0.445c0.721 2.22 1.317 4.571 1.702 7.017l0.098 0.617 0.511-0.357c2.495-1.759 4.346-4.284 5.22-7.23l0.024-0.096 0.129-0.445-0.46-0.052c-1.14-0.129-2.583-0.258-4.416-0.19zM19.125 20.38l-0.12-0.354-0.359 0.104c-2.639 0.768-5.399 2.759-7.491 4.68-1.011 0.919-1.827 1.793-2.483 2.508l-0.322 0.352 0.409 0.246c1.986 1.198 4.293 1.903 6.782 1.903 1.868 0 3.631-0.395 5.24-1.090l0.272-0.117-0.040-0.293c-0.378-2.789-1.045-5.448-1.889-7.938zM0.677 16.22c0-8.393 6.686-15.219 14.871-15.219s14.871 6.826 14.871 15.22c0 8.392-6.686 15.218-14.871 15.218s-14.871-6.826-14.871-15.219z"></path>
</symbol>

<symbol id="icon-instagram" viewBox="0 0 31 32">
<path stroke-linejoin="miter" stroke-linecap="butt" stroke-miterlimit="4" stroke-width="0.7805" d="M9.495 1.009h0.39v-0.008h12.414c4.656 0 8.466 3.891 8.466 8.673v13.093c0 4.783-3.811 8.673-8.459 8.673h-12.811c-4.656-0.001-8.473-3.884-8.473-8.659v-13.099c0-4.782 3.817-8.673 8.473-8.673zM2.59 9.688v13.101c0 3.892 3.066 7.038 6.906 7.038h12.811c3.828 0 6.892-3.147 6.892-7.052v-13.092c0-3.906-3.065-7.053-6.899-7.053h-12.804c-3.835 0-6.898 3.147-6.906 7.059zM24.509 6.621c0-0.46 0.354-0.81 0.784-0.81s0.784 0.35 0.784 0.81-0.354 0.81-0.784 0.81-0.784-0.35-0.784-0.81zM8.074 16.224c0-4.414 3.532-8.012 7.828-8.012s7.827 3.598 7.827 8.012-3.532 8.012-7.828 8.012c-4.296 0-7.828-3.598-7.828-8.012zM22.162 16.224c0-3.539-2.779-6.392-6.259-6.392s-6.26 2.853-6.26 6.392 2.779 6.392 6.26 6.392c3.482 0 6.26-2.853 6.26-6.392z"></path>
</symbol>
<symbol id="icon-linkedin" viewBox="0 0 32 32">
<path stroke-linejoin="miter" stroke-linecap="butt" stroke-miterlimit="4" stroke-width="0.3902" d="M26.985 0.502h-22.166c-2.531 0-4.591 2.054-4.591 4.579v22.106c0 2.525 2.061 4.58 4.592 4.58h22.165c2.532 0 4.592-2.055 4.592-4.58v-22.106c0-2.526-2.061-4.58-4.592-4.58zM29.741 27.187c-0.004 1.519-1.236 2.748-2.755 2.748 0 0 0 0 0 0h-22.166c0 0 0 0 0 0-1.519 0-2.751-1.229-2.755-2.747v-22.107c0.004-1.519 1.236-2.748 2.755-2.748 0 0 0 0 0 0h22.166c0 0 0 0 0 0 1.519 0 2.751 1.229 2.755 2.747v22.107z"></path>
<path d="M24.523 23.164h-3.365v-5.621c0-0.388-0.028-0.771-0.126-1.149-0.402-1.56-2.139-1.469-2.831-0.73-0.347 0.372-0.574 0.791-0.584 1.31-0.002 0.123-0.009 0.247-0.009 0.371v5.817h-3.359v-10.43h3.358v1.399l0.027 0.012c0.023-0.032 0.048-0.064 0.072-0.098 0.337-0.467 0.724-0.882 1.237-1.161 0.574-0.314 1.194-0.418 1.839-0.4 0.699 0.020 1.361 0.177 1.959 0.553 0.765 0.482 1.232 1.186 1.506 2.032 0.213 0.659 0.283 1.339 0.283 2.028 0.002 1.982 0 3.963 0 5.944 0 0.039-0.003 0.078-0.005 0.123z"></path>
<path d="M24.523 23.164v0.023h0.023l0.001-0.023-0.023-0.001zM21.157 23.164h-0.023v0.023h0.023v-0.023zM21.157 17.543h0.001zM21.032 16.394v0zM18.201 15.664l0.018 0.016-0.018-0.016zM17.617 16.975v0zM17.608 17.346v0zM17.608 23.163v0.024h0.023v-0.023h-0.023zM14.249 23.163h-0.023v0.024h0.023v-0.023zM14.249 12.731v-0.023h-0.023v0.023h0.023zM17.606 12.731h0.023v-0.023h-0.023v0.023zM17.606 14.131h-0.024v0.016l0.014 0.006 0.009-0.022zM17.633 14.142l-0.009 0.022 0.017 0.008 0.012-0.016-0.020-0.014zM17.705 14.045v0zM18.942 12.883v0zM20.78 12.484l0.001-0.023v0.023zM22.739 13.037v0zM24.245 15.070v0zM24.528 17.097v0zM24.528 23.042v0zM24.523 23.14h-3.365v0.048h3.365v-0.047zM21.182 23.163v-0.154h-0.048v0.155h0.048zM21.182 23.009v-5.466h-0.047c-0.002 1.822-0.001 3.644-0.001 5.466h0.048zM21.182 17.543c0-0.389-0.029-0.774-0.126-1.155l-0.047 0.012c0.097 0.376 0.126 0.757 0.126 1.143h0.048zM21.055 16.388c-0.204-0.79-0.747-1.163-1.327-1.245-0.578-0.080-1.193 0.13-1.545 0.505l0.035 0.033c0.34-0.364 0.939-0.569 1.502-0.49 0.562 0.078 1.089 0.439 1.288 1.21l0.046-0.012zM18.184 15.648c-0.35 0.375-0.581 0.8-0.59 1.327h0.047c0.010-0.511 0.234-0.926 0.578-1.294l-0.034-0.033zM17.594 16.975c-0.002 0.121-0.009 0.247-0.009 0.371h0.047c0-0.124 0.008-0.245 0.010-0.37l-0.048-0.002zM17.584 17.346l-0.001 5.657h0.048v-5.657h-0.047zM17.584 23.003v0.161h0.048v-0.159h-0.048zM17.607 23.139h-3.358v0.048h3.358v-0.048zM14.272 23.163v-10.431h-0.047v10.431h0.047zM14.249 12.755h3.358v-0.048h-3.358v0.048zM17.581 12.732v1.398h0.048v-1.398h-0.048zM17.597 14.153l0.027 0.012 0.019-0.044-0.027-0.012-0.020 0.044zM17.651 14.157l0.073-0.098-0.039-0.028-0.072 0.097 0.039 0.029zM17.724 14.059c0.336-0.466 0.72-0.877 1.229-1.155l-0.023-0.041c-0.517 0.283-0.907 0.7-1.244 1.169l0.039 0.027zM18.953 12.904c0.57-0.31 1.185-0.414 1.826-0.396l0.002-0.047c-0.648-0.020-1.272 0.086-1.851 0.402l0.023 0.042zM20.78 12.507c0.695 0.020 1.354 0.177 1.947 0.55l0.026-0.041c-0.601-0.379-1.269-0.537-1.971-0.557l-0.002 0.048zM22.726 13.058c0.76 0.478 1.224 1.179 1.496 2.019l0.045-0.014c-0.275-0.851-0.744-1.561-1.516-2.046l-0.026 0.041zM24.222 15.077c0.212 0.656 0.281 1.334 0.282 2.021h0.048c-0.001-0.69-0.071-1.373-0.285-2.035l-0.045 0.014zM24.504 17.097c0.002 1.982 0.001 3.963 0.001 5.944h0.048c0-1.981 0.002-3.963 0-5.944h-0.048zM24.505 23.042c0 0.038-0.004 0.075-0.006 0.121l0.048 0.002c0.002-0.043 0.006-0.084 0.006-0.123h-0.048z"></path>
<path d="M12.183 23.157v0h-3.317v-10.416h3.317v10.416zM10.669 7.549c0.523-0.001 0.968 0.184 1.284 0.502s0.502 0.766 0.503 1.295c0.002 0.523-0.186 0.968-0.506 1.283s-0.773 0.499-1.307 0.499c-1.040 0.002-1.78-0.741-1.783-1.787s0.749-1.791 1.808-1.792z"></path>
</symbol>

<symbol id="icon-star-3" viewBox="0 0 198 32">
<path fill="#070707" style="fill: var(--color9, #070707)" d="M14.82 4.575c0.356-1.090 1.897-1.090 2.253 0l2.075 6.369c0.16 0.479 0.604 0.818 1.127 0.818 0 0 0 0 0 0h6.709c1.15 0 1.626 1.471 0.696 2.145l-5.422 3.929c-0.298 0.218-0.49 0.566-0.49 0.96 0 0.131 0.021 0.258 0.061 0.376l-0.002-0.008 2.072 6.36c0.356 1.090-0.892 2.001-1.822 1.327l-5.435-3.938c-0.193-0.141-0.434-0.225-0.695-0.225s-0.503 0.084-0.698 0.228l0.003-0.002-5.435 3.937c-0.929 0.674-2.177-0.235-1.822-1.327l2.072-6.36c0.037-0.11 0.058-0.236 0.058-0.368 0-0.393-0.192-0.742-0.486-0.957l-0.003-0.002-5.422-3.928c-0.93-0.674-0.453-2.145 0.696-2.145h6.708c0 0 0.001 0 0.002 0 0.523 0 0.967-0.339 1.124-0.809l0.002-0.008 2.074-6.369zM56.415 4.575c0.356-1.090 1.9-1.090 2.254 0l2.076 6.369c0.159 0.478 0.603 0.817 1.126 0.818h6.709c1.15 0 1.626 1.471 0.696 2.145l-5.422 3.929c-0.298 0.218-0.49 0.566-0.49 0.96 0 0.131 0.021 0.258 0.061 0.376l-0.002-0.008 2.072 6.36c0.356 1.090-0.892 2.001-1.822 1.327l-5.435-3.938c-0.193-0.141-0.434-0.225-0.695-0.225s-0.503 0.084-0.698 0.228l0.003-0.002-5.435 3.937c-0.929 0.674-2.177-0.235-1.822-1.327l2.072-6.36c0.037-0.11 0.058-0.236 0.058-0.368 0-0.393-0.192-0.742-0.486-0.957l-0.003-0.002-5.422-3.928c-0.93-0.674-0.453-2.145 0.696-2.145h6.711c0.523-0 0.966-0.339 1.123-0.809l0.002-0.008 2.076-6.369zM98.012 4.575c0.356-1.090 1.899-1.090 2.254 0l2.074 6.369c0.16 0.479 0.604 0.818 1.127 0.818 0.001 0 0.001 0 0.002 0h6.708c1.15 0 1.626 1.471 0.696 2.145l-5.422 3.929c-0.298 0.218-0.49 0.566-0.49 0.96 0 0.131 0.021 0.258 0.061 0.376l-0.002-0.008 2.073 6.36c0.356 1.090-0.894 2.001-1.823 1.327l-5.434-3.938c-0.193-0.141-0.434-0.226-0.696-0.226s-0.503 0.085-0.699 0.228l0.003-0.002-5.434 3.937c-0.93 0.674-2.178-0.235-1.823-1.327l2.073-6.36c0.037-0.11 0.058-0.236 0.058-0.368 0-0.393-0.192-0.742-0.487-0.957l-0.003-0.002-5.422-3.928c-0.93-0.674-0.454-2.145 0.695-2.145h6.709c0 0 0 0 0 0 0.523 0 0.967-0.339 1.124-0.809l0.002-0.008 2.075-6.369z"></path>
<path fill="#e5e5e5" style="fill: var(--color11, #e5e5e5)" d="M139.609 4.575c0.356-1.090 1.899-1.090 2.254 0l2.075 6.369c0.16 0.479 0.604 0.818 1.127 0.818 0 0 0 0 0 0h6.709c1.148 0 1.625 1.471 0.695 2.145l-5.422 3.929c-0.298 0.218-0.49 0.567-0.49 0.96 0 0.131 0.021 0.258 0.061 0.376l-0.002-0.008 2.073 6.36c0.356 1.090-0.892 2.001-1.823 1.327l-5.434-3.938c-0.193-0.141-0.434-0.226-0.696-0.226s-0.503 0.085-0.699 0.228l0.003-0.002-5.434 3.937c-0.929 0.674-2.178-0.235-1.823-1.327l2.073-6.36c0.037-0.11 0.058-0.236 0.058-0.367 0-0.393-0.191-0.742-0.486-0.958l-0.003-0.002-5.422-3.928c-0.93-0.674-0.454-2.145 0.696-2.145h6.708c0 0 0 0 0 0 0.523 0 0.967-0.339 1.124-0.809l0.002-0.008 2.075-6.369zM181.205 4.575c0.356-1.090 1.899-1.090 2.254 0l2.075 6.369c0.16 0.479 0.604 0.818 1.127 0.818 0 0 0 0 0 0h6.709c1.148 0 1.625 1.471 0.695 2.145l-5.421 3.929c-0.299 0.218-0.491 0.567-0.491 0.96 0 0.131 0.021 0.257 0.061 0.375l-0.002-0.008 2.073 6.36c0.356 1.090-0.892 2.001-1.823 1.327l-5.434-3.938c-0.193-0.141-0.434-0.226-0.696-0.226s-0.503 0.085-0.699 0.228l0.003-0.002-5.434 3.937c-0.929 0.674-2.178-0.235-1.823-1.327l2.073-6.36c0.037-0.11 0.058-0.236 0.058-0.367 0-0.393-0.191-0.742-0.486-0.958l-0.003-0.002-5.422-3.928c-0.93-0.674-0.454-2.145 0.696-2.145h6.709c0.523-0 0.966-0.339 1.124-0.809l0.002-0.008 2.075-6.369z"></path>
</symbol>
<symbol id="icon-star-4" viewBox="0 0 199 32">
<path fill="#070707" style="fill: var(--color9, #070707)" d="M15.319 4.575c0.356-1.090 1.899-1.090 2.254 0l2.074 6.369c0.16 0.479 0.604 0.818 1.127 0.818 0.001 0 0.001 0 0.002 0h6.708c1.15 0 1.626 1.471 0.696 2.145l-5.422 3.929c-0.298 0.218-0.49 0.566-0.49 0.96 0 0.131 0.021 0.258 0.061 0.376l-0.002-0.008 2.073 6.36c0.356 1.090-0.892 2.001-1.823 1.327l-5.434-3.938c-0.193-0.141-0.434-0.226-0.696-0.226s-0.503 0.085-0.699 0.228l0.003-0.002-5.434 3.937c-0.93 0.674-2.178-0.235-1.823-1.327l2.073-6.36c0.037-0.11 0.058-0.236 0.058-0.368 0-0.393-0.192-0.742-0.486-0.957l-0.003-0.002-5.422-3.928c-0.93-0.674-0.454-2.145 0.695-2.145h6.709c0 0 0 0 0 0 0.523 0 0.967-0.339 1.124-0.809l0.002-0.008 2.075-6.369zM56.915 4.575c0.356-1.090 1.899-1.090 2.254 0l2.074 6.369c0.16 0.479 0.604 0.818 1.127 0.818 0.001 0 0.001 0 0.002 0h6.708c1.15 0 1.626 1.471 0.696 2.145l-5.422 3.929c-0.298 0.218-0.49 0.566-0.49 0.96 0 0.131 0.021 0.258 0.061 0.376l-0.002-0.008 2.073 6.36c0.356 1.090-0.894 2.001-1.823 1.327l-5.434-3.938c-0.193-0.141-0.434-0.226-0.696-0.226s-0.503 0.085-0.699 0.228l0.003-0.002-5.434 3.937c-0.93 0.674-2.178-0.235-1.823-1.327l2.073-6.36c0.037-0.11 0.058-0.236 0.058-0.368 0-0.393-0.192-0.742-0.486-0.957l-0.003-0.002-5.422-3.928c-0.93-0.674-0.454-2.145 0.695-2.145h6.709c0 0 0 0 0 0 0.523 0 0.967-0.339 1.124-0.809l0.002-0.008 2.075-6.369zM98.513 4.575c0.356-1.090 1.897-1.090 2.252 0l2.076 6.369c0.159 0.478 0.603 0.817 1.126 0.818h6.711c1.148 0 1.625 1.471 0.695 2.145l-5.422 3.929c-0.298 0.218-0.49 0.566-0.49 0.96 0 0.131 0.021 0.258 0.061 0.376l-0.002-0.008 2.073 6.36c0.356 1.090-0.894 2.001-1.823 1.327l-5.434-3.938c-0.193-0.141-0.434-0.226-0.696-0.226s-0.503 0.085-0.699 0.228l0.003-0.002-5.434 3.937c-0.929 0.674-2.178-0.235-1.823-1.327l2.073-6.36c0.037-0.11 0.058-0.236 0.058-0.368 0-0.393-0.192-0.742-0.487-0.957l-0.003-0.002-5.422-3.928c-0.93-0.674-0.454-2.145 0.696-2.145h6.708c0 0 0 0 0 0 0.523 0 0.967-0.339 1.124-0.809l0.002-0.008 2.076-6.369zM140.108 4.575c0.356-1.090 1.899-1.090 2.254 0l2.075 6.369c0.16 0.479 0.604 0.818 1.127 0.818 0 0 0 0 0 0h6.709c1.148 0 1.625 1.471 0.695 2.145l-5.422 3.929c-0.298 0.218-0.49 0.567-0.49 0.96 0 0.131 0.021 0.258 0.061 0.376l-0.002-0.008 2.073 6.36c0.356 1.090-0.892 2.001-1.823 1.327l-5.434-3.938c-0.193-0.141-0.434-0.226-0.696-0.226s-0.503 0.085-0.699 0.228l0.003-0.002-5.434 3.937c-0.929 0.674-2.178-0.235-1.823-1.327l2.073-6.36c0.037-0.11 0.058-0.236 0.058-0.367 0-0.393-0.191-0.742-0.486-0.958l-0.003-0.002-5.422-3.928c-0.93-0.674-0.454-2.145 0.696-2.145h6.708c0 0 0 0 0 0 0.523 0 0.967-0.339 1.124-0.809l0.002-0.008 2.075-6.369z"></path>
<path fill="#e5e5e5" style="fill: var(--color11, #e5e5e5)" d="M181.705 4.575c0.354-1.090 1.897-1.090 2.253 0l2.075 6.369c0.16 0.479 0.604 0.818 1.127 0.818 0 0 0 0 0 0h6.709c1.148 0 1.626 1.471 0.696 2.145l-5.422 3.929c-0.298 0.217-0.49 0.566-0.49 0.959 0 0.132 0.022 0.259 0.061 0.377l-0.002-0.008 2.072 6.36c0.356 1.090-0.892 2.001-1.822 1.327l-5.435-3.938c-0.192-0.141-0.434-0.226-0.695-0.226s-0.503 0.085-0.698 0.228l0.003-0.002-5.435 3.937c-0.929 0.674-2.177-0.235-1.822-1.327l2.072-6.36c0.037-0.11 0.059-0.237 0.059-0.369 0-0.393-0.192-0.741-0.487-0.957l-0.003-0.002-5.422-3.928c-0.93-0.674-0.453-2.145 0.696-2.145h6.709c0.523 0 0.967-0.339 1.124-0.809l0.002-0.008 2.076-6.369z"></path>
</symbol>
</defs>
</svg>
